<?xml version="1.0" standalone="no"?>
<!DOCTYPE svg PUBLIC "-//W3C//DTD SVG 20010904//EN"
 "http://www.w3.org/TR/2001/REC-SVG-20010904/DTD/svg10.dtd">
<svg version="1.0" xmlns="http://www.w3.org/2000/svg"
 width="1378.000000pt" height="1378.000000pt" viewBox="0 0 1378.000000 1378.000000"
 preserveAspectRatio="xMidYMid meet">
<metadata>
Created by potrace 1.14, written by Peter Selinger 2001-2017
</metadata>
<g transform="translate(0.000000,1378.000000) scale(0.100000,-0.100000)"
fill="#000000" stroke="none">
<path d="M6774 11848 c-28 -4 -72 -16 -97 -27 -26 -11 -47 -17 -47 -13 0 4 -4
2 -8 -5 -4 -6 -14 -13 -22 -15 -8 -2 -21 -9 -28 -16 -8 -7 -18 -10 -23 -7 -5
4 -9 2 -9 -4 0 -13 -67 -81 -80 -81 -6 0 -9 -4 -7 -8 3 -10 -67 -72 -82 -72
-6 0 -11 -5 -11 -11 0 -5 -5 -7 -10 -4 -6 4 -9 2 -8 -3 4 -11 -128 -138 -164
-158 -16 -8 -28 -19 -28 -24 0 -6 -5 -10 -11 -10 -5 0 -45 -35 -87 -78 -42
-43 -93 -89 -112 -102 -19 -14 -66 -55 -103 -92 -37 -38 -72 -68 -78 -68 -6 0
-57 -47 -114 -105 -57 -58 -108 -105 -113 -105 -5 0 -58 -47 -117 -105 -59
-58 -111 -105 -116 -105 -11 0 -59 -46 -59 -56 0 -9 -121 -124 -131 -124 -4 0
-48 -39 -96 -88 -96 -96 -146 -135 -157 -124 -4 4 -6 2 -4 -3 4 -12 -96 -115
-112 -115 -6 0 -9 -4 -5 -9 3 -5 -3 -12 -14 -16 -10 -3 -34 -21 -54 -40 -19
-18 -38 -31 -42 -27 -4 4 -5 0 -3 -8 1 -8 -3 -14 -10 -12 -6 1 -11 -4 -10 -10
2 -7 -3 -12 -9 -10 -7 1 -13 -2 -13 -8 0 -12 -146 -152 -156 -150 -4 1 -11 -5
-16 -14 -5 -9 -15 -13 -21 -10 -7 4 -9 4 -5 -1 7 -8 -96 -115 -111 -115 -5 0
-11 -7 -15 -15 -3 -8 -12 -15 -20 -15 -7 0 -21 -11 -30 -25 -10 -15 -22 -23
-29 -19 -7 4 -9 4 -5 0 8 -10 -32 -57 -43 -50 -4 2 -11 -1 -15 -7 -5 -8 -3 -9
7 -4 8 4 -12 -16 -45 -46 -32 -30 -66 -58 -75 -63 -9 -5 -51 -44 -94 -85 -43
-42 -81 -76 -86 -76 -4 0 -49 -42 -100 -92 -51 -51 -96 -92 -99 -90 -4 1 -49
-40 -100 -91 -50 -51 -92 -90 -92 -87 0 7 -25 -13 -52 -42 -12 -12 -26 -19
-32 -16 -6 3 -8 3 -4 -1 9 -11 -23 -46 -36 -39 -6 3 -8 3 -4 -1 8 -9 -23 -47
-33 -40 -4 2 -10 -4 -13 -13 -3 -10 -23 -29 -43 -43 -21 -14 -74 -61 -119
-105 -145 -143 -173 -167 -186 -159 -7 4 -10 4 -7 0 6 -7 -72 -96 -84 -96 -5
0 -41 -32 -122 -108 -21 -20 -44 -36 -50 -34 -5 2 -7 1 -3 -3 11 -12 -95 -106
-112 -99 -8 3 -11 2 -8 -1 7 -7 -230 -245 -244 -245 -4 0 -7 -3 -6 -7 3 -10
-55 -68 -64 -65 -5 1 -7 -4 -5 -11 1 -6 -5 -11 -13 -9 -8 2 -12 1 -8 -3 10
-10 -24 -45 -36 -38 -6 3 -8 3 -4 -1 4 -5 -8 -23 -25 -41 -18 -18 -43 -49 -57
-68 -14 -19 -28 -33 -33 -30 -4 2 -6 0 -5 -4 2 -5 -25 -49 -59 -96 -113 -159
-117 -209 -29 -301 53 -55 55 -56 110 -56 54 0 81 9 119 39 9 8 17 11 17 7 0
-4 20 7 44 24 25 16 47 30 50 30 3 0 14 7 23 14 10 8 43 33 73 55 30 23 70 53
88 68 19 16 38 28 43 28 5 0 13 5 17 10 9 12 66 61 112 95 18 14 39 31 46 38
7 6 15 12 18 12 3 0 48 41 100 91 53 51 104 97 113 104 10 7 41 35 70 61 74
71 102 94 113 94 6 0 10 5 10 11 0 5 5 7 12 3 6 -4 8 -3 5 3 -6 9 72 84 126
122 12 9 45 39 74 68 28 29 57 53 64 53 7 0 10 3 6 6 -3 3 13 24 36 45 39 36
46 40 63 38 4 0 12 10 19 23 6 13 17 22 23 21 7 -2 11 1 9 6 -2 9 144 150 153
148 3 -1 50 42 104 96 54 54 101 96 103 93 3 -3 45 35 94 85 48 49 90 89 93
89 8 0 36 25 105 93 32 31 64 57 70 57 7 0 10 4 7 9 -3 5 7 14 23 21 16 6 39
25 51 41 13 16 27 26 32 23 4 -3 7 0 6 8 -2 7 3 12 9 11 7 -2 12 1 10 5 -2 9
80 92 91 92 4 0 13 9 20 20 7 11 19 20 28 20 8 0 59 44 112 98 53 53 113 108
132 122 19 14 69 59 110 100 41 42 91 87 110 100 19 14 60 49 90 80 30 31 71
67 90 80 19 14 70 60 112 102 43 43 82 78 87 78 6 0 43 32 82 70 40 39 76 70
80 70 4 0 45 37 92 83 110 108 165 157 173 157 4 0 44 37 90 83 108 108 140
137 151 137 5 0 52 45 106 100 53 55 101 100 107 100 5 0 51 41 101 90 49 50
94 90 99 90 5 0 54 45 110 100 55 55 104 100 110 100 6 0 38 27 71 60 76 76
99 77 171 8 28 -26 54 -48 59 -48 5 0 44 -35 87 -77 43 -43 93 -90 112 -104
19 -15 65 -56 101 -93 37 -36 71 -66 76 -66 4 0 33 -25 63 -55 30 -30 74 -68
98 -83 23 -15 45 -35 48 -44 3 -10 9 -18 15 -18 5 0 28 -19 52 -42 50 -50 84
-78 95 -78 4 0 28 -22 52 -50 25 -27 50 -50 55 -50 16 0 65 -46 58 -54 -3 -3
-1 -6 6 -6 7 0 39 -27 72 -60 32 -33 63 -60 68 -60 5 0 37 -27 71 -60 34 -33
66 -60 70 -60 5 0 45 -36 89 -80 45 -44 85 -80 91 -80 5 0 45 -35 89 -77 43
-43 94 -89 114 -103 19 -14 34 -26 32 -28 -2 -2 20 -24 49 -50 28 -26 55 -53
59 -60 5 -7 12 -10 16 -8 4 3 33 -19 64 -49 31 -30 54 -55 51 -55 -3 0 8 -11
24 -25 17 -14 34 -25 38 -25 5 0 41 -31 79 -70 39 -38 75 -70 80 -70 6 0 47
-36 90 -80 44 -44 85 -80 91 -80 6 0 28 -18 50 -40 21 -22 44 -40 50 -40 5 0
31 -20 56 -45 26 -25 44 -45 40 -45 -4 0 4 -8 18 -17 13 -9 44 -39 69 -65 24
-26 48 -48 53 -48 9 0 53 -36 77 -62 8 -10 20 -18 26 -18 11 0 91 -70 80 -70
-3 0 8 -12 25 -26 17 -15 48 -44 69 -65 21 -22 41 -39 46 -39 4 0 39 -30 77
-67 39 -38 76 -74 84 -80 7 -7 16 -13 21 -13 11 0 103 -88 103 -99 0 -5 7 -8
15 -7 8 0 63 -47 122 -105 59 -58 116 -110 126 -115 9 -6 51 -42 91 -82 41
-40 77 -72 80 -72 9 0 62 -48 109 -97 22 -24 44 -43 50 -43 13 0 67 -47 61
-53 -2 -2 10 -11 27 -20 32 -15 219 -193 219 -208 0 -5 6 -6 13 -3 7 2 26 -9
42 -26 16 -16 34 -30 40 -30 6 0 21 -10 33 -22 39 -42 59 -58 68 -58 6 0 23
-13 39 -30 16 -16 34 -30 40 -30 7 0 20 -9 30 -20 10 -11 23 -20 30 -20 7 0
20 -9 30 -20 10 -11 23 -20 30 -20 7 0 20 -9 30 -20 10 -11 24 -20 30 -20 7 0
18 -7 25 -15 7 -9 15 -14 17 -11 3 2 30 -9 61 -26 87 -46 175 -41 233 12 28
25 59 93 59 128 0 18 -7 46 -15 63 -9 16 -13 33 -10 38 2 5 -2 11 -10 15 -8 3
-15 12 -15 21 0 8 -5 15 -11 15 -5 0 -8 4 -5 9 3 5 -1 11 -9 15 -8 3 -15 10
-15 16 0 6 -9 21 -20 33 -11 12 -18 27 -16 34 3 7 1 13 -4 13 -13 0 -59 48
-52 54 3 3 0 6 -6 6 -15 0 -82 67 -74 74 3 3 1 6 -5 6 -6 0 -82 72 -170 160
-87 88 -162 160 -166 160 -11 0 -27 14 -125 113 -48 48 -91 87 -95 87 -13 0
-67 47 -61 53 2 2 -9 11 -26 19 -17 8 -79 62 -138 120 -59 58 -112 107 -119
109 -7 2 -48 39 -92 82 -43 42 -82 77 -86 77 -6 0 -71 58 -140 128 -18 17 -37
32 -41 32 -5 0 -25 15 -44 33 -19 17 -37 32 -40 32 -12 0 -78 63 -73 69 4 3 2
6 -4 6 -14 0 -82 68 -75 75 3 3 -3 5 -14 5 -11 0 -38 19 -61 43 l-42 42 -2
785 c-2 668 -5 792 -18 835 -8 28 -19 52 -23 53 -4 2 -8 10 -8 19 0 20 -16 34
-74 63 l-50 25 -515 0 c-409 0 -523 -3 -551 -14 -86 -33 -110 -49 -110 -75 0
-9 -4 -16 -10 -16 -5 0 -10 -9 -10 -19 0 -11 -6 -21 -12 -23 -9 -3 -13 -47
-14 -159 -1 -85 -2 -172 -3 -193 l-1 -40 -28 27 c-15 15 -32 27 -38 27 -5 0
-51 41 -103 90 -51 50 -97 90 -102 90 -4 0 -44 36 -88 80 -45 44 -84 80 -89
80 -4 0 -31 23 -60 50 -29 28 -56 50 -60 50 -4 0 -59 50 -122 110 -62 61 -117
110 -122 110 -4 0 -25 18 -47 40 -21 22 -43 40 -49 40 -16 0 -97 82 -94 94 2
6 1 8 -3 4 -4 -4 -22 9 -41 28 -19 19 -39 34 -44 34 -5 0 -41 32 -80 70 -39
39 -75 70 -80 70 -5 0 -45 36 -89 80 -45 44 -85 80 -89 80 -5 0 -22 12 -39 28
-63 55 -79 67 -122 90 -23 12 -49 22 -57 22 -7 0 -29 9 -48 20 -40 22 -108 29
-182 18z"/>
<path d="M6827 10554 c-15 -8 -32 -12 -37 -9 -6 3 -10 2 -10 -4 0 -5 -16 -15
-36 -21 -20 -7 -45 -21 -55 -31 -11 -11 -26 -19 -34 -19 -8 0 -15 -3 -15 -7
-1 -9 -77 -58 -88 -57 -8 0 -9 -1 -62 -46 -19 -16 -39 -30 -43 -30 -4 0 -20
-11 -35 -25 -15 -14 -31 -25 -35 -25 -5 0 -23 -11 -41 -25 -18 -14 -36 -22
-41 -17 -5 4 -5 2 -2 -4 4 -7 -4 -19 -17 -27 -13 -9 -31 -23 -40 -33 -9 -9
-19 -14 -22 -12 -2 3 -20 -9 -38 -26 -83 -77 -93 -86 -103 -86 -6 0 -13 -7
-17 -15 -3 -8 -12 -15 -20 -15 -8 0 -16 -3 -18 -8 -7 -15 -61 -52 -69 -46 -5
3 -8 0 -7 -8 2 -7 -3 -12 -9 -11 -7 2 -13 -1 -13 -6 0 -12 -62 -71 -74 -71 -6
0 -26 -16 -44 -35 -17 -20 -32 -33 -32 -31 0 3 -11 -6 -25 -20 -14 -14 -30
-22 -35 -19 -6 4 -9 3 -8 -2 3 -8 -74 -83 -85 -83 -3 0 -23 -17 -45 -37 -60
-58 -91 -83 -102 -83 -5 0 -15 -9 -23 -20 -22 -32 -89 -80 -101 -73 -6 3 -8 3
-4 -1 7 -9 -122 -137 -132 -131 -3 2 -16 -10 -29 -26 -13 -16 -27 -26 -32 -23
-5 3 -8 1 -7 -4 4 -14 -82 -83 -94 -75 -6 3 -8 1 -5 -4 8 -12 -27 -46 -36 -36
-4 3 -7 2 -7 -4 0 -13 -53 -68 -100 -103 -19 -14 -43 -34 -54 -45 -59 -56 -98
-85 -108 -79 -7 4 -8 2 -4 -4 4 -7 1 -12 -8 -12 -9 0 -15 -3 -14 -8 3 -9 -56
-68 -97 -97 -15 -11 -35 -28 -43 -37 -9 -9 -19 -15 -24 -12 -5 3 -7 0 -6 -8 2
-7 -4 -12 -12 -10 -8 2 -12 0 -8 -3 11 -11 -120 -137 -134 -129 -6 4 -8 3 -5
-3 4 -6 0 -16 -8 -23 -8 -7 -15 -9 -15 -6 0 4 -14 -8 -31 -26 -18 -18 -28 -26
-24 -18 5 9 4 12 -1 7 -5 -5 -9 -12 -9 -17 0 -21 -142 -143 -156 -134 -5 3 -8
0 -7 -8 2 -7 -4 -12 -12 -10 -8 2 -12 0 -8 -4 11 -11 -234 -244 -256 -244 -11
0 -17 -3 -13 -6 3 -3 -7 -18 -22 -32 -185 -180 -222 -213 -232 -206 -7 4 -10
3 -7 -2 7 -11 -17 -35 -27 -26 -4 4 -5 2 -3 -4 4 -14 -101 -109 -119 -108 -7
1 -13 -3 -13 -8 0 -13 -162 -174 -172 -171 -5 2 -7 0 -6 -5 2 -4 -41 -50 -95
-102 l-97 -95 2 -2215 3 -2215 29 -49 c30 -52 84 -116 97 -116 4 0 27 -13 51
-28 24 -16 77 -39 118 -51 41 -13 83 -27 93 -33 24 -12 3746 -13 3758 -1 5 5
10 755 11 1688 2 1200 6 1686 14 1700 6 11 22 42 35 69 24 49 184 220 198 211
4 -2 19 2 34 10 15 8 27 11 27 8 0 -3 9 2 21 13 20 18 51 19 818 22 719 3 803
1 869 -14 39 -9 72 -21 72 -25 0 -5 9 -9 20 -9 11 0 20 -4 20 -9 0 -5 9 -13
21 -16 11 -4 33 -20 50 -35 16 -16 29 -27 29 -24 0 7 42 -44 63 -78 9 -15 17
-34 17 -43 0 -8 4 -15 9 -15 4 0 17 -28 26 -62 18 -60 19 -154 20 -1726 1
-914 4 -1664 7 -1667 10 -10 783 -6 783 4 0 5 165 57 165 52 0 -3 4 -1 8 6 4
6 14 13 22 15 8 2 21 9 28 16 8 7 18 10 23 7 5 -4 9 -1 9 4 0 6 15 26 34 44
19 17 47 57 63 87 l28 55 3 2210 2 2209 -135 133 c-74 73 -138 133 -143 133
-4 0 -72 63 -150 140 -78 77 -142 137 -142 135 0 -7 -45 31 -101 85 -26 25
-75 70 -110 101 -97 86 -137 127 -131 133 3 3 0 6 -6 6 -6 0 -30 20 -53 45
-23 25 -47 45 -54 45 -6 0 -38 26 -72 58 -33 31 -79 72 -102 90 -22 19 -69 62
-104 96 -34 35 -67 65 -74 67 -18 6 -213 197 -213 209 0 5 -4 9 -9 8 -5 -2
-18 7 -29 20 -11 13 -23 22 -25 20 -8 -5 -107 88 -102 96 3 3 2 4 -1 1 -9 -6
-64 38 -134 107 -33 32 -60 56 -60 53 0 -7 -14 5 -70 56 -21 20 -37 39 -34 42
3 3 -1 4 -9 4 -18 -2 -158 128 -149 139 4 4 2 4 -5 1 -12 -7 -44 17 -117 88
-25 24 -59 51 -75 61 -17 10 -31 25 -31 33 0 8 -3 11 -6 8 -4 -4 -14 1 -23 11
-9 10 -32 29 -51 42 -19 13 -52 41 -72 62 -20 21 -40 38 -45 38 -15 0 -102 87
-95 95 4 5 1 5 -6 1 -7 -4 -15 -1 -18 8 -3 9 -10 13 -15 11 -4 -3 -14 3 -21
15 -7 11 -18 20 -25 20 -7 0 -17 9 -23 20 -6 11 -16 20 -23 20 -17 0 -98 76
-90 84 4 4 1 4 -8 1 -9 -3 -24 5 -37 20 -12 14 -28 25 -34 25 -7 0 -31 18 -53
40 -22 21 -46 39 -52 40 -7 0 -13 4 -13 9 0 5 -9 13 -20 16 -11 3 -20 14 -20
22 0 9 -3 13 -6 10 -7 -6 -82 47 -96 68 -4 5 -11 10 -15 10 -9 0 -46 26 -96
65 -51 40 -96 70 -104 70 -5 0 -19 10 -33 23 -14 12 -55 37 -92 56 -38 19 -68
38 -68 42 0 5 -3 8 -7 7 -12 -3 -83 25 -83 32 0 14 -106 9 -133 -6z m-1681
-4174 l30 0 -2 -362 c-1 -200 -3 -371 -3 -380 -2 -40 -28 -42 -493 -43 -247
-1 -449 1 -449 4 -1 3 -3 96 -4 206 -2 189 -1 204 22 275 14 41 31 80 39 86 8
6 14 17 14 24 0 17 108 120 126 120 8 0 14 5 14 10 0 6 9 10 20 10 11 0 20 5
20 10 0 6 9 10 19 10 11 0 23 5 26 10 4 6 14 10 23 9 10 -1 24 1 32 4 29 12
115 13 566 7z m1027 -24 c15 -5 27 -12 27 -17 0 -5 7 -9 15 -9 19 0 55 -31 55
-47 0 -7 4 -12 8 -10 5 1 33 -23 63 -53 52 -53 110 -153 96 -167 -4 -3 -2 -12
5 -20 14 -18 17 -421 3 -432 -11 -9 -924 -6 -932 3 -5 5 -13 747 -7 757 5 8
635 3 667 -5z m-1007 -1099 c8 -7 5 -749 -2 -756 -2 -3 -144 -5 -315 -6 -261
-2 -316 1 -345 14 -19 8 -34 19 -34 23 0 4 -7 5 -15 2 -8 -4 -15 -1 -15 5 0 6
-7 11 -16 11 -19 0 -124 105 -124 124 0 6 -9 18 -20 26 -11 8 -20 22 -20 31 0
8 -3 19 -7 23 -4 3 -8 12 -10 19 -1 7 -6 28 -11 47 -6 27 -9 439 -3 446 4 5
932 -4 937 -9z m1289 -192 c0 -190 -7 -268 -26 -289 -5 -6 -9 -18 -9 -28 0
-10 -4 -18 -10 -18 -5 0 -10 -9 -10 -20 0 -12 -7 -20 -17 -20 -9 0 -14 -3 -10
-6 8 -8 -140 -154 -157 -154 -8 0 -18 -5 -22 -11 -3 -6 -17 -9 -30 -6 -13 2
-25 -1 -27 -7 -4 -9 -89 -12 -309 -11 -167 1 -308 4 -313 7 -15 9 -12 747 2
756 6 4 220 7 474 7 l463 0 1 -200z"/>
</g>
</svg>
